<svg width="40" height="77" viewBox="0 0 40 77" fill="none" xmlns="http://www.w3.org/2000/svg">
<path fill-rule="evenodd" clip-rule="evenodd" d="M16.8231 76.9819L23.4275 61.0389L39.3717 54.4346L32.7673 38.4915L39.3716 22.5474L23.4275 15.9431L16.8231 1.52588e-05L0 6.96843V38.1274L5.10216e-05 38.7414L0 39.3705V70.0135L16.8231 76.9819ZM1.758 36.3694V8.14308L15.8718 2.29694L21.7179 16.4096L1.758 36.3694ZM22.961 17.6527L37.0747 23.4988L31.2286 37.6125H3.0011L22.961 17.6527ZM3.00221 39.3705H31.2286L37.0747 53.4832L22.961 59.3293L3.00221 39.3705ZM21.7179 60.5724L15.8718 74.685L1.758 68.8389V40.6125L21.7179 60.5724Z" fill="#CC9D2F"/>
</svg>
