<svg width="40" height="77" viewBox="0 0 40 77" fill="none" xmlns="http://www.w3.org/2000/svg">
<path d="M1.14867 7.40728L16.6171 1L23.0244 16.4673L38.4928 22.8746L32.0856 38.3431L38.4928 53.8104L23.0244 60.2177L16.6171 75.685L1.14867 69.2777V7.40728ZM1.14867 38.3431L23.0244 16.4673L1.14867 38.3431Z" fill="#5B0017"/>
<path fill-rule="evenodd" clip-rule="evenodd" d="M16.8231 76.9819L23.4275 61.0389L39.3717 54.4346L32.7673 38.4915L39.3716 22.5474L23.4275 15.9431L16.8231 1.52588e-05L0 6.96843V38.1274L5.10216e-05 38.7414L0 39.3705V70.0135L16.8231 76.9819ZM1.758 36.3694V8.14308L15.8718 2.29694L21.7179 16.4096L1.758 36.3694ZM22.961 17.6527L37.0747 23.4988L31.2286 37.6125H3.0011L22.961 17.6527ZM3.00221 39.3705H31.2286L37.0747 53.4832L22.961 59.3293L3.00221 39.3705ZM21.7179 60.5724L15.8718 74.685L1.758 68.8389V40.6125L21.7179 60.5724Z" fill="#CC9D2F"/>
<path d="M27.4345 28.2724C27.4345 29.6248 26.3372 30.721 24.9848 30.721C23.6334 30.721 22.5361 29.6248 22.5361 28.2724C22.5361 26.9199 23.6334 25.8237 24.9848 25.8237C26.3372 25.8237 27.4345 26.9199 27.4345 28.2724Z" fill="#CC9D2F"/>
<path d="M13.554 13.5799C13.554 14.9324 12.4578 16.0296 11.1054 16.0296C9.75291 16.0296 8.65674 14.9324 8.65674 13.5799C8.65674 12.2274 9.75291 11.1313 11.1054 11.1313C12.4578 11.1313 13.554 12.2274 13.554 13.5799Z" fill="#CC9D2F"/>
<path d="M13.554 61.855C13.554 63.2074 12.4578 64.3036 11.1054 64.3036C9.75291 64.3036 8.65674 63.2074 8.65674 61.855C8.65674 60.5025 9.75291 59.4063 11.1054 59.4063C12.4578 59.4063 13.554 60.5025 13.554 61.855Z" fill="#CC9D2F"/>
<path d="M27.4345 47.8623C27.4345 49.2148 26.3372 50.311 24.9848 50.311C23.6334 50.311 22.5361 49.2148 22.5361 47.8623C22.5361 46.5099 23.6334 45.4137 24.9848 45.4137C26.3372 45.4137 27.4345 46.5099 27.4345 47.8623Z" fill="#CC9D2F"/>
</svg>
